<svg width="396.35999755859376px" height="126.839990234375px" xmlns="http://www.w3.org/2000/svg" viewBox="51.82000122070312 11.580004882812503 396.35999755859376 126.839990234375" style="background: rgb(252, 250, 250);" preserveAspectRatio="xMidYMid"><defs><linearGradient id="editing-gradient-gradient" x1="0" x2="1" y1="0.5" y2="0.5" gradientUnits="objectBoundingBox"><stop offset="0" stop-color="#201d1d"></stop><stop offset="1" stop-color="#c47d2a"></stop></linearGradient></defs><g><g transform="translate(112.43500757217407, 90.09500026702881)"><path d="M12.72-16.46L12.72-16.46L12.72-16.46Q10.10-16.46 8.70-14.86L8.70-14.86L8.70-14.86Q7.31-13.26 7.31-10.34L7.31-10.34L7.31-10.34Q7.31-7.38 8.86-5.78L8.86-5.78L8.86-5.78Q10.40-4.18 13.02-4.18L13.02-4.18L13.02-4.18Q14.42-4.18 15.39-4.56L15.39-4.56L15.39-4.56Q16.35-4.93 17.24-5.41L17.24-5.41L17.24-5.41Q17.82-4.93 18.14-4.27L18.14-4.27L18.14-4.27Q18.46-3.60 18.46-2.72L18.46-2.72L18.46-2.72Q18.46-1.33 16.92-0.36L16.92-0.36L16.92-0.36Q15.37 0.61 12.21 0.61L12.21 0.61L12.21 0.61Q9.93 0.61 7.92-0.03L7.92-0.03L7.92-0.03Q5.92-0.68 4.42-2.02L4.42-2.02L4.42-2.02Q2.92-3.37 2.06-5.42L2.06-5.42L2.06-5.42Q1.19-7.48 1.19-10.34L1.19-10.34L1.19-10.34Q1.19-12.99 2.02-15.01L2.02-15.01L2.02-15.01Q2.86-17.03 4.30-18.43L4.30-18.43L4.30-18.43Q5.75-19.82 7.68-20.54L7.68-20.54L7.68-20.54Q9.62-21.25 11.83-21.25L11.83-21.25L11.83-21.25Q14.96-21.25 16.68-20.23L16.68-20.23L16.68-20.23Q18.39-19.21 18.39-17.61L18.39-17.61L18.39-17.61Q18.39-16.73 17.95-16.08L17.95-16.08L17.95-16.08Q17.51-15.44 16.93-15.06L16.93-15.06L16.93-15.06Q16.05-15.64 15.05-16.05L15.05-16.05L15.05-16.05Q14.04-16.46 12.72-16.46ZM37.50-10.34L37.50-0.03L37.50-0.03Q37.16 0.07 36.43 0.17L36.43 0.17L36.43 0.17Q35.70 0.27 34.92 0.27L34.92 0.27L34.92 0.27Q34.17 0.27 33.58 0.17L33.58 0.17L33.58 0.17Q32.98 0.07 32.57-0.24L32.57-0.24L32.57-0.24Q32.16-0.54 31.94-1.07L31.94-1.07L31.94-1.07Q31.72-1.60 31.72-2.45L31.72-2.45L31.72-10.00L31.72-10.00Q31.72-11.39 31.03-11.95L31.03-11.95L31.03-11.95Q30.33-12.51 29.31-12.51L29.31-12.51L29.31-12.51Q28.63-12.51 28.02-12.34L28.02-12.34L28.02-12.34Q27.40-12.17 27.03-11.93L27.03-11.93L27.03-0.03L27.03-0.03Q26.69 0.07 25.96 0.17L25.96 0.17L25.96 0.17Q25.23 0.27 24.45 0.27L24.45 0.27L24.45 0.27Q23.70 0.27 23.10 0.17L23.10 0.17L23.10 0.17Q22.51 0.07 22.10-0.24L22.10-0.24L22.10-0.24Q21.69-0.54 21.47-1.07L21.47-1.07L21.47-1.07Q21.25-1.60 21.25-2.45L21.25-2.45L21.25-22.17L21.25-22.17Q21.62-22.24 22.36-22.36L22.36-22.36L22.36-22.36Q23.09-22.47 23.83-22.47L23.83-22.47L23.83-22.47Q24.58-22.47 25.18-22.37L25.18-22.37L25.18-22.37Q25.77-22.27 26.18-21.96L26.18-21.96L26.18-21.96Q26.59-21.66 26.81-21.13L26.81-21.13L26.81-21.13Q27.03-20.60 27.03-19.75L27.03-19.75L27.03-16.42L27.03-16.42Q27.47-16.59 28.37-16.81L28.37-16.81L28.37-16.81Q29.27-17.03 30.36-17.03L30.36-17.03L30.36-17.03Q33.73-17.03 35.62-15.35L35.62-15.35L35.62-15.35Q37.50-13.67 37.50-10.34L37.50-10.34ZM48.14-3.67L48.14-3.67L48.14-3.67Q48.72-3.67 49.42-3.79L49.42-3.79L49.42-3.79Q50.12-3.91 50.46-4.11L50.46-4.11L50.46-6.83L48.01-6.63L48.01-6.63Q47.06-6.56 46.44-6.22L46.44-6.22L46.44-6.22Q45.83-5.88 45.83-5.20L45.83-5.20L45.83-5.20Q45.83-4.52 46.36-4.10L46.36-4.10L46.36-4.10Q46.89-3.67 48.14-3.67ZM47.87-17.03L47.87-17.03L47.87-17.03Q49.71-17.03 51.22-16.66L51.22-16.66L51.22-16.66Q52.73-16.29 53.81-15.52L53.81-15.52L53.81-15.52Q54.88-14.76 55.45-13.58L55.45-13.58L55.45-13.58Q56.03-12.41 56.03-10.81L56.03-10.81L56.03-3.20L56.03-3.20Q56.03-2.31 55.54-1.75L55.54-1.75L55.54-1.75Q55.05-1.19 54.37-0.78L54.37-0.78L54.37-0.78Q52.16 0.54 48.14 0.54L48.14 0.54L48.14 0.54Q46.34 0.54 44.90 0.20L44.90 0.20L44.90 0.20Q43.45-0.14 42.41-0.82L42.41-0.82L42.41-0.82Q41.38-1.50 40.82-2.55L40.82-2.55L40.82-2.55Q40.26-3.60 40.26-5.00L40.26-5.00L40.26-5.00Q40.26-7.34 41.65-8.60L41.65-8.60L41.65-8.60Q43.04-9.86 45.97-10.17L45.97-10.17L50.42-10.64L50.42-10.88L50.42-10.88Q50.42-11.87 49.56-12.29L49.56-12.29L49.56-12.29Q48.69-12.72 47.06-12.72L47.06-12.72L47.06-12.72Q45.76-12.72 44.54-12.44L44.54-12.44L44.54-12.44Q43.32-12.17 42.33-11.76L42.33-11.76L42.33-11.76Q41.89-12.07 41.58-12.70L41.58-12.70L41.58-12.70Q41.28-13.33 41.28-14.01L41.28-14.01L41.28-14.01Q41.28-14.89 41.70-15.42L41.70-15.42L41.70-15.42Q42.13-15.95 43.01-16.32L43.01-16.32L43.01-16.32Q44.00-16.69 45.34-16.86L45.34-16.86L45.34-16.86Q46.68-17.03 47.87-17.03ZM65.35-10.81L65.35-5.68L65.35-5.68Q65.35-4.79 65.91-4.42L65.91-4.42L65.91-4.42Q66.47-4.05 67.49-4.05L67.49-4.05L67.49-4.05Q68-4.05 68.54-4.13L68.54-4.13L68.54-4.13Q69.09-4.22 69.50-4.35L69.50-4.35L69.50-4.35Q69.80-3.98 70.02-3.52L70.02-3.52L70.02-3.52Q70.24-3.06 70.24-2.41L70.24-2.41L70.24-2.41Q70.24-1.12 69.28-0.31L69.28-0.31L69.28-0.31Q68.31 0.51 65.86 0.51L65.86 0.51L65.86 0.51Q62.87 0.51 61.25-0.85L61.25-0.85L61.25-0.85Q59.64-2.21 59.64-5.27L59.64-5.27L59.64-19.82L59.64-19.82Q60.01-19.92 60.71-20.04L60.71-20.04L60.71-20.04Q61.40-20.16 62.19-20.16L62.19-20.16L62.19-20.16Q63.68-20.16 64.52-19.64L64.52-19.64L64.52-19.64Q65.35-19.11 65.35-17.41L65.35-17.41L65.35-15.23L69.80-15.23L69.80-15.23Q70.01-14.86 70.19-14.30L70.19-14.30L70.19-14.30Q70.38-13.74 70.38-13.06L70.38-13.06L70.38-13.06Q70.38-11.87 69.85-11.34L69.85-11.34L69.85-11.34Q69.33-10.81 68.44-10.81L68.44-10.81L65.35-10.81ZM89.93-15.57L89.93-15.57L89.93-15.57Q90.30-15.74 91.10-15.96L91.10-15.96L91.10-15.96Q91.90-16.18 92.72-16.18L92.72-16.18L92.72-16.18Q94.15-16.18 95.10-15.76L95.10-15.76L95.10-15.76Q96.05-15.33 96.25-14.52L96.25-14.52L96.25-14.52Q96.63-13.12 96.95-11.92L96.95-11.92L96.95-11.92Q97.27-10.71 97.58-9.61L97.58-9.61L97.58-9.61Q97.89-8.50 98.18-7.41L98.18-7.41L98.18-7.41Q98.46-6.32 98.74-5.13L98.74-5.13L98.91-5.13L98.91-5.13Q99.21-7.21 99.45-9.10L99.45-9.10L99.45-9.10Q99.69-10.98 99.89-12.80L99.89-12.80L99.89-12.80Q100.10-14.62 100.30-16.41L100.30-16.41L100.30-16.41Q100.50-18.19 100.71-20.03L100.71-20.03L100.71-20.03Q101.97-20.74 103.39-20.74L103.39-20.74L103.39-20.74Q104.65-20.74 105.57-20.20L105.57-20.20L105.57-20.20Q106.49-19.65 106.49-18.36L106.49-18.36L106.49-18.36Q106.49-17.61 106.34-16.23L106.34-16.23L106.34-16.23Q106.18-14.86 105.93-13.16L105.93-13.16L105.93-13.16Q105.67-11.46 105.33-9.59L105.33-9.59L105.33-9.59Q104.99-7.72 104.62-6.02L104.62-6.02L104.62-6.02Q104.24-4.32 103.85-2.94L103.85-2.94L103.85-2.94Q103.46-1.56 103.12-0.82L103.12-0.82L103.12-0.82Q102.61-0.34 101.46-0.03L101.46-0.03L101.46-0.03Q100.30 0.27 99.08 0.27L99.08 0.27L99.08 0.27Q97.48 0.27 96.37-0.15L96.37-0.15L96.37-0.15Q95.27-0.58 95.03-1.36L95.03-1.36L95.03-1.36Q94.59-2.72 94.08-4.59L94.08-4.59L94.08-4.59Q93.57-6.46 92.99-8.70L92.99-8.70L92.99-8.70Q92.51-6.49 92.00-4.39L92.00-4.39L92.00-4.39Q91.49-2.28 91.09-0.82L91.09-0.82L91.09-0.82Q90.58-0.34 89.56-0.03L89.56-0.03L89.56-0.03Q88.54 0.27 87.31 0.27L87.31 0.27L87.31 0.27Q85.78 0.27 84.54-0.15L84.54-0.15L84.54-0.15Q83.30-0.58 82.93-1.36L82.93-1.36L82.93-1.36Q82.62-1.97 82.26-3.18L82.26-3.18L82.26-3.18Q81.91-4.39 81.53-5.93L81.53-5.93L81.53-5.93Q81.16-7.48 80.77-9.28L80.77-9.28L80.77-9.28Q80.38-11.08 80.05-12.89L80.05-12.89L80.05-12.89Q79.73-14.69 79.46-16.41L79.46-16.41L79.46-16.41Q79.19-18.12 79.05-19.55L79.05-19.55L79.05-19.55Q79.53-19.99 80.38-20.37L80.38-20.37L80.38-20.37Q81.23-20.74 82.21-20.74L82.21-20.74L82.21-20.74Q83.50-20.74 84.34-20.18L84.34-20.18L84.34-20.18Q85.17-19.62 85.37-18.29L85.37-18.29L85.37-18.29Q85.92-14.82 86.28-12.51L86.28-12.51L86.28-12.51Q86.63-10.20 86.85-8.72L86.85-8.72L86.85-8.72Q87.07-7.24 87.18-6.43L87.18-6.43L87.18-6.43Q87.28-5.61 87.38-5.13L87.38-5.13L87.55-5.13L87.55-5.13Q87.86-6.49 88.13-7.65L88.13-7.65L88.13-7.65Q88.40-8.81 88.69-9.98L88.69-9.98L88.69-9.98Q88.98-11.15 89.28-12.50L89.28-12.50L89.28-12.50Q89.59-13.84 89.93-15.57ZM109.04-21.11L109.04-21.11L109.04-21.11Q109.04-22.41 109.91-23.29L109.91-23.29L109.91-23.29Q110.77-24.17 112.20-24.17L112.20-24.17L112.20-24.17Q113.63-24.17 114.50-23.29L114.50-23.29L114.50-23.29Q115.36-22.41 115.36-21.11L115.36-21.11L115.36-21.11Q115.36-19.82 114.50-18.94L114.50-18.94L114.50-18.94Q113.63-18.05 112.20-18.05L112.20-18.05L112.20-18.05Q110.77-18.05 109.91-18.94L109.91-18.94L109.91-18.94Q109.04-19.82 109.04-21.11ZM115.09-13.87L115.09-0.03L115.09-0.03Q114.72 0.03 113.99 0.15L113.99 0.15L113.99 0.15Q113.25 0.27 112.51 0.27L112.51 0.27L112.51 0.27Q111.76 0.27 111.16 0.17L111.16 0.17L111.16 0.17Q110.57 0.07 110.16-0.24L110.16-0.24L110.16-0.24Q109.75-0.54 109.53-1.07L109.53-1.07L109.53-1.07Q109.31-1.60 109.31-2.45L109.31-2.45L109.31-16.29L109.31-16.29Q109.68-16.35 110.42-16.47L110.42-16.47L110.42-16.47Q111.15-16.59 111.89-16.59L111.89-16.59L111.89-16.59Q112.64-16.59 113.24-16.49L113.24-16.49L113.24-16.49Q113.83-16.39 114.24-16.08L114.24-16.08L114.24-16.08Q114.65-15.78 114.87-15.25L114.87-15.25L114.87-15.25Q115.09-14.72 115.09-13.87L115.09-13.87ZM124.54-10.81L124.54-5.68L124.54-5.68Q124.54-4.79 125.10-4.42L125.10-4.42L125.10-4.42Q125.66-4.05 126.68-4.05L126.68-4.05L126.68-4.05Q127.19-4.05 127.74-4.13L127.74-4.13L127.74-4.13Q128.28-4.22 128.69-4.35L128.69-4.35L128.69-4.35Q129.00-3.98 129.22-3.52L129.22-3.52L129.22-3.52Q129.44-3.06 129.44-2.41L129.44-2.41L129.44-2.41Q129.44-1.12 128.47-0.31L128.47-0.31L128.47-0.31Q127.50 0.51 125.05 0.51L125.05 0.51L125.05 0.51Q122.06 0.51 120.44-0.85L120.44-0.85L120.44-0.85Q118.83-2.21 118.83-5.27L118.83-5.27L118.83-19.82L118.83-19.82Q119.20-19.92 119.90-20.04L119.90-20.04L119.90-20.04Q120.60-20.16 121.38-20.16L121.38-20.16L121.38-20.16Q122.88-20.16 123.71-19.64L123.71-19.64L123.71-19.64Q124.54-19.11 124.54-17.41L124.54-17.41L124.54-15.23L129.00-15.23L129.00-15.23Q129.20-14.86 129.39-14.30L129.39-14.30L129.39-14.30Q129.57-13.74 129.57-13.06L129.57-13.06L129.57-13.06Q129.57-11.87 129.05-11.34L129.05-11.34L129.05-11.34Q128.52-10.81 127.64-10.81L127.64-10.81L124.54-10.81ZM148.68-10.34L148.68-0.03L148.68-0.03Q148.34 0.07 147.61 0.17L147.61 0.17L147.61 0.17Q146.88 0.27 146.10 0.27L146.10 0.27L146.10 0.27Q145.35 0.27 144.75 0.17L144.75 0.17L144.75 0.17Q144.16 0.07 143.75-0.24L143.75-0.24L143.75-0.24Q143.34-0.54 143.12-1.07L143.12-1.07L143.12-1.07Q142.90-1.60 142.90-2.45L142.90-2.45L142.90-10.00L142.90-10.00Q142.90-11.39 142.20-11.95L142.20-11.95L142.20-11.95Q141.51-12.51 140.49-12.51L140.49-12.51L140.49-12.51Q139.81-12.51 139.20-12.34L139.20-12.34L139.20-12.34Q138.58-12.17 138.21-11.93L138.21-11.93L138.21-0.03L138.21-0.03Q137.87 0.07 137.14 0.17L137.14 0.17L137.14 0.17Q136.41 0.27 135.63 0.27L135.63 0.27L135.63 0.27Q134.88 0.27 134.28 0.17L134.28 0.17L134.28 0.17Q133.69 0.07 133.28-0.24L133.28-0.24L133.28-0.24Q132.87-0.54 132.65-1.07L132.65-1.07L132.65-1.07Q132.43-1.60 132.43-2.45L132.43-2.45L132.43-22.17L132.43-22.17Q132.80-22.24 133.53-22.36L133.53-22.36L133.53-22.36Q134.27-22.47 135.01-22.47L135.01-22.47L135.01-22.47Q135.76-22.47 136.36-22.37L136.36-22.37L136.36-22.37Q136.95-22.27 137.36-21.96L137.36-21.96L137.36-21.96Q137.77-21.66 137.99-21.13L137.99-21.13L137.99-21.13Q138.21-20.60 138.21-19.75L138.21-19.75L138.21-16.42L138.21-16.42Q138.65-16.59 139.55-16.81L139.55-16.81L139.55-16.81Q140.45-17.03 141.54-17.03L141.54-17.03L141.54-17.03Q144.91-17.03 146.79-15.35L146.79-15.35L146.79-15.35Q148.68-13.67 148.68-10.34L148.68-10.34ZM163.88-19.99L163.88-19.99L163.88-19.99Q164.46-20.33 165.63-20.64L165.63-20.64L165.63-20.64Q166.80-20.94 167.99-20.94L167.99-20.94L167.99-20.94Q169.69-20.94 171.00-20.45L171.00-20.45L171.00-20.45Q172.31-19.96 172.69-18.90L172.69-18.90L172.69-18.90Q173.30-17.14 174.01-14.79L174.01-14.79L174.01-14.79Q174.73-12.44 175.44-9.95L175.44-9.95L175.44-9.95Q176.15-7.45 176.83-5.02L176.83-5.02L176.83-5.02Q177.51-2.58 178.02-0.71L178.02-0.71L178.02-0.71Q177.62-0.24 176.80 0.05L176.80 0.05L176.80 0.05Q175.98 0.34 174.86 0.34L174.86 0.34L174.86 0.34Q174.05 0.34 173.48 0.20L173.48 0.20L173.48 0.20Q172.92 0.07 172.57-0.20L172.57-0.20L172.57-0.20Q172.21-0.48 171.99-0.92L171.99-0.92L171.99-0.92Q171.77-1.36 171.60-1.94L171.60-1.94L170.99-4.28L164.83-4.28L164.83-4.28Q164.56-3.26 164.29-2.18L164.29-2.18L164.29-2.18Q164.02-1.09 163.74-0.07L163.74-0.07L163.74-0.07Q163.27 0.10 162.74 0.22L162.74 0.22L162.74 0.22Q162.21 0.34 161.47 0.34L161.47 0.34L161.47 0.34Q159.73 0.34 158.90-0.26L158.90-0.26L158.90-0.26Q158.07-0.85 158.07-1.90L158.07-1.90L158.07-1.90Q158.07-2.38 158.20-2.86L158.20-2.86L158.20-2.86Q158.34-3.33 158.51-3.98L158.51-3.98L158.51-3.98Q158.75-4.90 159.17-6.26L159.17-6.26L159.17-6.26Q159.60-7.62 160.11-9.20L160.11-9.20L160.11-9.20Q160.62-10.78 161.19-12.44L161.19-12.44L161.19-12.44Q161.77-14.11 162.28-15.59L162.28-15.59L162.28-15.59Q162.79-17.07 163.22-18.22L163.22-18.22L163.22-18.22Q163.64-19.38 163.88-19.99ZM168.16-15.61L167.96-15.61L167.96-15.61Q167.48-14.18 166.89-12.43L166.89-12.43L166.89-12.43Q166.29-10.68 165.82-8.87L165.82-8.87L170.03-8.87L170.03-8.87Q169.56-10.71 169.06-12.46L169.06-12.46L169.06-12.46Q168.57-14.21 168.16-15.61L168.16-15.61ZM190.84-2.45L190.84-10.47L190.84-10.47Q190.84-11.53 190.25-12.02L190.25-12.02L190.25-12.02Q189.65-12.51 188.63-12.51L188.63-12.51L188.63-12.51Q187.95-12.51 187.29-12.34L187.29-12.34L187.29-12.34Q186.63-12.17 186.15-11.83L186.15-11.83L186.15-0.03L186.15-0.03Q185.81 0.07 185.08 0.17L185.08 0.17L185.08 0.17Q184.35 0.27 183.57 0.27L183.57 0.27L183.57 0.27Q182.82 0.27 182.22 0.17L182.22 0.17L182.22 0.17Q181.63 0.07 181.22-0.24L181.22-0.24L181.22-0.24Q180.81-0.54 180.59-1.07L180.59-1.07L180.59-1.07Q180.37-1.60 180.37-2.45L180.37-2.45L180.37-12.65L180.37-12.65Q180.37-13.57 180.76-14.14L180.76-14.14L180.76-14.14Q181.15-14.72 181.83-15.20L181.83-15.20L181.83-15.20Q182.99-16.01 184.74-16.52L184.74-16.52L184.74-16.52Q186.49-17.03 188.63-17.03L188.63-17.03L188.63-17.03Q192.47-17.03 194.55-15.35L194.55-15.35L194.55-15.35Q196.62-13.67 196.62-10.68L196.62-10.68L196.62-0.03L196.62-0.03Q196.28 0.07 195.55 0.17L195.55 0.17L195.55 0.17Q194.82 0.27 194.04 0.27L194.04 0.27L194.04 0.27Q193.29 0.27 192.69 0.17L192.69 0.17L192.69 0.17Q192.10 0.07 191.69-0.24L191.69-0.24L191.69-0.24Q191.28-0.54 191.06-1.07L191.06-1.07L191.06-1.07Q190.84-1.60 190.84-2.45L190.84-2.45ZM202.33-4.22L202.33-4.22L202.33-4.22Q201.96-5.07 201.53-6.12L201.53-6.12L201.53-6.12Q201.11-7.17 200.65-8.53L200.65-8.53L200.65-8.53Q200.19-9.89 199.70-11.65L199.70-11.65L199.70-11.65Q199.21-13.40 198.66-15.67L198.66-15.67L198.66-15.67Q199.14-16.15 199.94-16.51L199.94-16.51L199.94-16.51Q200.74-16.86 201.69-16.86L201.69-16.86L201.69-16.86Q202.88-16.86 203.66-16.37L203.66-16.37L203.66-16.37Q204.44-15.88 204.82-14.52L204.82-14.52L207.50-5.17L207.64-5.17L207.64-5.17Q208.05-6.32 208.44-7.68L208.44-7.68L208.44-7.68Q208.83-9.04 209.20-10.49L209.20-10.49L209.20-10.49Q209.58-11.93 209.90-13.38L209.90-13.38L209.90-13.38Q210.22-14.82 210.46-16.22L210.46-16.22L210.46-16.22Q211.68-16.86 213.15-16.86L213.15-16.86L213.15-16.86Q214.34-16.86 215.12-16.35L215.12-16.35L215.12-16.35Q215.90-15.84 215.90-14.59L215.90-14.59L215.90-14.59Q215.90-13.67 215.66-12.46L215.66-12.46L215.66-12.46Q215.42-11.25 215.03-9.89L215.03-9.89L215.03-9.89Q214.64-8.53 214.12-7.09L214.12-7.09L214.12-7.09Q213.59-5.64 213.01-4.25L213.01-4.25L213.01-4.25Q212.43-2.86 211.82-1.62L211.82-1.62L211.82-1.62Q211.21-0.37 210.63 0.61L210.63 0.61L210.63 0.61Q209.68 2.28 208.86 3.33L208.86 3.33L208.86 3.33Q208.05 4.39 207.30 4.98L207.30 4.98L207.30 4.98Q206.55 5.58 205.80 5.80L205.80 5.80L205.80 5.80Q205.05 6.02 204.24 6.02L204.24 6.02L204.24 6.02Q202.81 6.02 201.93 5.17L201.93 5.17L201.93 5.17Q201.04 4.32 200.87 2.96L200.87 2.96L200.87 2.96Q201.96 2.11 203.05 1.07L203.05 1.07L203.05 1.07Q204.14 0.03 205.02-1.05L205.02-1.05L205.02-1.05Q204.44-1.22 203.78-1.85L203.78-1.85L203.78-1.85Q203.12-2.48 202.33-4.22ZM235.42-8.26L235.42-8.26L235.42-8.26Q235.42-6.15 234.77-4.50L234.77-4.50L234.77-4.50Q234.12-2.86 232.95-1.73L232.95-1.73L232.95-1.73Q231.78-0.61 230.15-0.03L230.15-0.03L230.15-0.03Q228.51 0.54 226.51 0.54L226.51 0.54L226.51 0.54Q224.50 0.54 222.87-0.07L222.87-0.07L222.87-0.07Q221.24-0.68 220.07-1.82L220.07-1.82L220.07-1.82Q218.89-2.96 218.25-4.59L218.25-4.59L218.25-4.59Q217.60-6.22 217.60-8.26L217.60-8.26L217.60-8.26Q217.60-10.27 218.25-11.90L218.25-11.90L218.25-11.90Q218.89-13.53 220.07-14.67L220.07-14.67L220.07-14.67Q221.24-15.81 222.87-16.42L222.87-16.42L222.87-16.42Q224.50-17.03 226.51-17.03L226.51-17.03L226.51-17.03Q228.51-17.03 230.15-16.41L230.15-16.41L230.15-16.41Q231.78-15.78 232.95-14.64L232.95-14.64L232.95-14.64Q234.12-13.50 234.77-11.87L234.77-11.87L234.77-11.87Q235.42-10.23 235.42-8.26ZM223.52-8.26L223.52-8.26L223.52-8.26Q223.52-6.19 224.32-5.08L224.32-5.08L224.32-5.08Q225.11-3.98 226.54-3.98L226.54-3.98L226.54-3.98Q227.97-3.98 228.74-5.10L228.74-5.10L228.74-5.10Q229.50-6.22 229.50-8.26L229.50-8.26L229.50-8.26Q229.50-10.30 228.72-11.41L228.72-11.41L228.72-11.41Q227.94-12.51 226.51-12.51L226.51-12.51L226.51-12.51Q225.08-12.51 224.30-11.41L224.30-11.41L224.30-11.41Q223.52-10.30 223.52-8.26ZM248.71-2.45L248.71-10.47L248.71-10.47Q248.71-11.53 248.12-12.02L248.12-12.02L248.12-12.02Q247.52-12.51 246.50-12.51L246.50-12.51L246.50-12.51Q245.82-12.51 245.16-12.34L245.16-12.34L245.16-12.34Q244.49-12.17 244.02-11.83L244.02-11.83L244.02-0.03L244.02-0.03Q243.68 0.07 242.95 0.17L242.95 0.17L242.95 0.17Q242.22 0.27 241.43 0.27L241.43 0.27L241.43 0.27Q240.69 0.27 240.09 0.17L240.09 0.17L240.09 0.17Q239.50 0.07 239.09-0.24L239.09-0.24L239.09-0.24Q238.68-0.54 238.46-1.07L238.46-1.07L238.46-1.07Q238.24-1.60 238.24-2.45L238.24-2.45L238.24-12.65L238.24-12.65Q238.24-13.57 238.63-14.14L238.63-14.14L238.63-14.14Q239.02-14.72 239.70-15.20L239.70-15.20L239.70-15.20Q240.86-16.01 242.61-16.52L242.61-16.52L242.61-16.52Q244.36-17.03 246.50-17.03L246.50-17.03L246.50-17.03Q250.34-17.03 252.42-15.35L252.42-15.35L252.42-15.35Q254.49-13.67 254.49-10.68L254.49-10.68L254.49-0.03L254.49-0.03Q254.15 0.07 253.42 0.17L253.42 0.17L253.42 0.17Q252.69 0.27 251.91 0.27L251.91 0.27L251.91 0.27Q251.16 0.27 250.56 0.17L250.56 0.17L250.56 0.17Q249.97 0.07 249.56-0.24L249.56-0.24L249.56-0.24Q249.15-0.54 248.93-1.07L248.93-1.07L248.93-1.07Q248.71-1.60 248.71-2.45L248.71-2.45ZM266.80 0.54L266.80 0.54L266.80 0.54Q264.79 0.54 263.08-0.02L263.08-0.02L263.08-0.02Q261.36-0.58 260.08-1.70L260.08-1.70L260.08-1.70Q258.81-2.82 258.08-4.52L258.08-4.52L258.08-4.52Q257.35-6.22 257.35-8.50L257.35-8.50L257.35-8.50Q257.35-10.74 258.08-12.36L258.08-12.36L258.08-12.36Q258.81-13.97 260.00-15.01L260.00-15.01L260.00-15.01Q261.19-16.05 262.72-16.54L262.72-16.54L262.72-16.54Q264.25-17.03 265.85-17.03L265.85-17.03L265.85-17.03Q267.65-17.03 269.13-16.49L269.13-16.49L269.13-16.49Q270.61-15.95 271.68-14.99L271.68-14.99L271.68-14.99Q272.75-14.04 273.34-12.72L273.34-12.72L273.34-12.72Q273.94-11.39 273.94-9.83L273.94-9.83L273.94-9.83Q273.94-8.67 273.29-8.06L273.29-8.06L273.29-8.06Q272.65-7.45 271.49-7.28L271.49-7.28L263.09-6.02L263.09-6.02Q263.47-4.90 264.62-4.33L264.62-4.33L264.62-4.33Q265.78-3.77 267.27-3.77L267.27-3.77L267.27-3.77Q268.67-3.77 269.91-4.13L269.91-4.13L269.91-4.13Q271.15-4.49 271.93-4.96L271.93-4.96L271.93-4.96Q272.48-4.62 272.85-4.01L272.85-4.01L272.85-4.01Q273.22-3.40 273.22-2.72L273.22-2.72L273.22-2.72Q273.22-1.19 271.80-0.44L271.80-0.44L271.80-0.44Q270.71 0.14 269.35 0.34L269.35 0.34L269.35 0.34Q267.99 0.54 266.80 0.54ZM265.85-12.82L265.85-12.82L265.85-12.82Q265.03-12.82 264.44-12.55L264.44-12.55L264.44-12.55Q263.84-12.27 263.47-11.85L263.47-11.85L263.47-11.85Q263.09-11.42 262.91-10.90L262.91-10.90L262.91-10.90Q262.72-10.37 262.68-9.83L262.68-9.83L268.50-10.78L268.50-10.78Q268.40-11.46 267.75-12.14L267.75-12.14L267.75-12.14Q267.10-12.82 265.85-12.82Z" fill="url(#editing-gradient-gradient)"></path></g></g><style>text {
  font-size: 64px;
  font-family: Arial Black;
  dominant-baseline: central;
  text-anchor: middle;
}</style></svg>