<svg width="251.9599853515625px" height="70.43999023437499px" xmlns="http://www.w3.org/2000/svg" viewBox="124.02000732421875 39.780004882812506 251.9599853515625 70.43999023437499" style="background: none;" preserveAspectRatio="xMidYMid"><defs><linearGradient id="editing-gradient-gradient" x1="0" x2="1" y1="0.5" y2="0.5" gradientUnits="objectBoundingBox"><stop offset="0" stop-color="#f0f"></stop><stop offset="1" stop-color="#0ff"></stop></linearGradient></defs><g><g transform="translate(165.56000363826752, 87.91999816894531)"><path d="M18.09-4.11L18.09-4.11L18.09-4.11Q18.33-4.45 18.63-4.45L18.63-4.45L18.63-4.45Q18.94-4.45 19.30-4.17L19.30-4.17L19.30-4.17Q19.65-3.88 19.65-3.60L19.65-3.60L19.65-3.60Q19.65-3.33 19.45-3.09L19.45-3.09L19.45-3.09Q16.59 0.34 11.59 0.34L11.59 0.34L11.59 0.34Q7.17 0.34 4.39-2.60L4.39-2.60L4.39-2.60Q1.60-5.54 1.60-10.30L1.60-10.30L1.60-10.30Q1.60-15.06 4.39-18.04L4.39-18.04L4.39-18.04Q7.17-21.01 11.41-21.01L11.41-21.01L11.41-21.01Q15.64-21.01 18.46-19.38L18.46-19.38L18.46-19.38Q18.97-19.11 18.97-18.67L18.97-18.67L18.97-15.74L18.97-15.74Q18.97-15.40 18.70-15.18L18.70-15.18L18.70-15.18Q18.43-14.96 18.05-14.96L18.05-14.96L18.05-14.96Q17.68-14.96 17.41-15.18L17.41-15.18L17.41-15.18Q17.14-15.40 17.14-15.74L17.14-15.74L17.14-18.26L17.14-18.26Q14.62-19.41 11.59-19.41L11.59-19.41L11.59-19.41Q7.96-19.41 5.70-16.88L5.70-16.88L5.70-16.88Q3.43-14.35 3.43-10.34L3.43-10.34L3.43-10.34Q3.43-6.32 5.70-3.79L5.70-3.79L5.70-3.79Q7.96-1.26 11.85-1.26L11.85-1.26L11.85-1.26Q15.74-1.26 18.09-4.11ZM24.85-8.23L24.85-0.44L24.85-0.44Q24.85-0.10 24.58 0.12L24.58 0.12L24.58 0.12Q24.31 0.34 23.94 0.34L23.94 0.34L23.94 0.34Q23.56 0.34 23.29 0.12L23.29 0.12L23.29 0.12Q23.02-0.10 23.02-0.44L23.02-0.44L23.02-23.90L20.77-23.90L20.77-23.90Q20.43-23.90 20.21-24.12L20.21-24.12L20.21-24.12Q19.99-24.34 19.99-24.68L19.99-24.68L19.99-24.68Q19.99-25.02 20.21-25.26L20.21-25.26L20.21-25.26Q20.43-25.50 20.77-25.50L20.77-25.50L23.97-25.50L23.97-25.50Q24.31-25.50 24.58-25.26L24.58-25.26L24.58-25.26Q24.85-25.02 24.85-24.68L24.85-24.68L24.85-10.44L24.85-10.44Q26.96-13.12 29.85-13.12L29.85-13.12L29.85-13.12Q31.76-13.12 32.90-12.16L32.90-12.16L32.90-12.16Q34.03-11.19 34.03-9.45L34.03-9.45L34.03-2.21L34.03-2.21Q34.03-1.60 34.95-1.60L34.95-1.60L36.28-1.60L36.28-1.60Q36.62-1.60 36.84-1.36L36.84-1.36L36.84-1.36Q37.06-1.12 37.06-0.78L37.06-0.78L37.06-0.78Q37.06-0.44 36.84-0.22L36.84-0.22L36.84-0.22Q36.62 0 36.28 0L36.28 0L34.95 0L34.95 0Q32.20 0 32.20-2.21L32.20-2.21L32.20-9.45L32.20-9.45Q32.20-11.56 29.85-11.56L29.85-11.56L29.85-11.56Q26.72-11.56 24.85-8.23L24.85-8.23ZM47.77-4.62L47.77-5.27L47.77-5.27Q45.53-5.88 43.95-5.88L43.95-5.88L43.95-5.88Q42.36-5.88 41.36-5.27L41.36-5.27L41.36-5.27Q40.36-4.66 40.36-3.55L40.36-3.55L40.36-3.55Q40.36-2.45 41.00-1.84L41.00-1.84L41.00-1.84Q41.65-1.22 42.77-1.22L42.77-1.22L42.77-1.22Q45.90-1.22 47.77-4.62L47.77-4.62ZM50.49-1.60L50.49-1.60L51.82-1.60L51.82-1.60Q52.16-1.60 52.38-1.36L52.38-1.36L52.38-1.36Q52.60-1.12 52.60-0.78L52.60-0.78L52.60-0.78Q52.60-0.44 52.38-0.22L52.38-0.22L52.38-0.22Q52.16 0 51.82 0L51.82 0L50.32 0L50.32 0Q49.10 0 48.43-0.54L48.43-0.54L48.43-0.54Q47.77-1.09 47.77-2.07L47.77-2.07L47.77-2.07Q47.77-2.24 47.80-2.45L47.80-2.45L47.80-2.45Q46.00 0.34 42.57 0.34L42.57 0.34L42.57 0.34Q40.66 0.34 39.59-0.68L39.59-0.68L39.59-0.68Q38.52-1.70 38.52-3.52L38.52-3.52L38.52-3.52Q38.52-5.34 39.97-6.38L39.97-6.38L39.97-6.38Q41.41-7.41 43.57-7.41L43.57-7.41L43.57-7.41Q45.73-7.41 47.77-6.70L47.77-6.70L47.77-9.04L47.77-9.04Q47.77-10.68 46.58-11.15L46.58-11.15L46.58-11.15Q45.66-11.49 44.05-11.49L44.05-11.49L44.05-11.49Q42.43-11.49 41.07-10.95L41.07-10.95L41.07-8.81L41.07-8.81Q41.07-8.47 40.80-8.25L40.80-8.25L40.80-8.25Q40.53-8.02 40.15-8.02L40.15-8.02L40.15-8.02Q39.78-8.02 39.51-8.25L39.51-8.25L39.51-8.25Q39.24-8.47 39.24-8.81L39.24-8.81L39.24-11.39L39.24-11.39Q39.24-11.83 39.68-12.07L39.68-12.07L39.68-12.07Q41.34-13.06 44.10-13.06L44.10-13.06L44.10-13.06Q46.85-13.06 48.21-12.16L48.21-12.16L48.21-12.16Q49.57-11.25 49.57-9.04L49.57-9.04L49.57-2.24L49.57-2.24Q49.57-1.60 50.49-1.60ZM63.65-2.18L63.65-2.18Q63.92-2.35 64.28-2.28L64.28-2.28L64.28-2.28Q64.63-2.21 64.77-1.99L64.77-1.99L64.77-1.99Q64.91-1.77 64.91-1.60L64.91-1.60L64.91-1.60Q64.91-1.09 64.53-0.85L64.53-0.85L64.53-0.85Q62.49 0.34 60.15 0.34L60.15 0.34L60.15 0.34Q57.80 0.34 56.78-0.63L56.78-0.63L56.78-0.63Q55.76-1.60 55.76-3.84L55.76-3.84L55.76-11.12L53.86-11.12L53.86-11.12Q53.52-11.12 53.30-11.34L53.30-11.34L53.30-11.34Q53.07-11.56 53.07-11.90L53.07-11.90L53.07-11.90Q53.07-12.24 53.30-12.48L53.30-12.48L53.30-12.48Q53.52-12.72 53.86-12.72L53.86-12.72L55.76-12.72L55.76-17.58L55.76-17.58Q55.76-17.92 56.03-18.14L56.03-18.14L56.03-18.14Q56.30-18.36 56.68-18.36L56.68-18.36L56.68-18.36Q57.05-18.36 57.32-18.14L57.32-18.14L57.32-18.14Q57.60-17.92 57.60-17.58L57.60-17.58L57.60-12.72L63.31-12.72L63.31-12.72Q63.65-12.72 63.87-12.48L63.87-12.48L63.87-12.48Q64.09-12.24 64.09-11.90L64.09-11.90L64.09-11.90Q64.09-11.56 63.87-11.34L63.87-11.34L63.87-11.34Q63.65-11.12 63.31-11.12L63.31-11.12L57.60-11.12L57.60-3.84L57.60-3.84Q57.60-2.41 58.19-1.82L58.19-1.82L58.19-1.82Q58.79-1.22 60.40-1.22L60.40-1.22L60.40-1.22Q62.02-1.22 63.65-2.18L63.65-2.18ZM92.41-11.87L87.99-0.31L87.99-0.31Q87.75 0.34 87.09 0.34L87.09 0.34L87.09 0.34Q86.43 0.34 86.26-0.27L86.26-0.27L83.10-9.66L79.93-0.27L79.93-0.27Q79.76 0.34 79.10 0.34L79.10 0.34L79.10 0.34Q78.44 0.34 78.20-0.27L78.20-0.27L73.75-11.87L73.75-11.87Q73.68-12.04 73.68-12.21L73.68-12.21L73.68-12.21Q73.68-12.72 74.29-12.95L74.29-12.95L74.29-12.95Q74.49-13.06 74.73-13.06L74.73-13.06L74.73-13.06Q75.28-12.99 75.45-12.58L75.45-12.58L79.02-3.06L82.21-12.51L82.21-12.51Q82.38-13.06 83.08-13.06L83.08-13.06L83.08-13.06Q83.78-13.06 83.95-12.51L83.95-12.51L87.18-3.03L90.75-12.58L90.75-12.58Q90.95-13.09 91.27-13.09L91.27-13.09L91.27-13.09Q91.60-13.09 91.87-12.95L91.87-12.95L91.87-12.95Q92.48-12.72 92.48-12.21L92.48-12.21L92.48-12.21Q92.48-12.04 92.41-11.87L92.41-11.87ZM98.46-11.93L98.46-0.44L98.46-0.44Q98.46-0.10 98.19 0.12L98.19 0.12L98.19 0.12Q97.92 0.34 97.55 0.34L97.55 0.34L97.55 0.34Q97.17 0.34 96.90 0.12L96.90 0.12L96.90 0.12Q96.63-0.10 96.63-0.44L96.63-0.44L96.63-11.12L94.38-11.12L94.38-11.12Q94.04-11.12 93.82-11.34L93.82-11.34L93.82-11.34Q93.60-11.56 93.60-11.90L93.60-11.90L93.60-11.90Q93.60-12.24 93.82-12.48L93.82-12.48L93.82-12.48Q94.04-12.72 94.38-12.72L94.38-12.72L97.68-12.72L97.68-12.72Q98.46-12.72 98.46-11.93L98.46-11.93ZM96.56-17.82L96.56-17.82L96.56-17.82Q96.25-18.16 96.25-18.63L96.25-18.63L96.25-18.63Q96.25-19.11 96.56-19.45L96.56-19.45L96.56-19.45Q96.87-19.79 97.41-19.79L97.41-19.79L97.41-19.79Q97.95-19.79 98.28-19.45L98.28-19.45L98.28-19.45Q98.60-19.11 98.60-18.63L98.60-18.63L98.60-18.63Q98.60-18.16 98.28-17.82L98.28-17.82L98.28-17.82Q97.95-17.48 97.41-17.48L97.41-17.48L97.41-17.48Q96.87-17.48 96.56-17.82ZM112.00-2.18L112.00-2.18Q112.27-2.35 112.63-2.28L112.63-2.28L112.63-2.28Q112.98-2.21 113.12-1.99L113.12-1.99L113.12-1.99Q113.25-1.77 113.25-1.60L113.25-1.60L113.25-1.60Q113.25-1.09 112.88-0.85L112.88-0.85L112.88-0.85Q110.84 0.34 108.49 0.34L108.49 0.34L108.49 0.34Q106.15 0.34 105.13-0.63L105.13-0.63L105.13-0.63Q104.11-1.60 104.11-3.84L104.11-3.84L104.11-11.12L102.20-11.12L102.20-11.12Q101.86-11.12 101.64-11.34L101.64-11.34L101.64-11.34Q101.42-11.56 101.42-11.90L101.42-11.90L101.42-11.90Q101.42-12.24 101.64-12.48L101.64-12.48L101.64-12.48Q101.86-12.72 102.20-12.72L102.20-12.72L104.11-12.72L104.11-17.58L104.11-17.58Q104.11-17.92 104.38-18.14L104.38-18.14L104.38-18.14Q104.65-18.36 105.03-18.36L105.03-18.36L105.03-18.36Q105.40-18.36 105.67-18.14L105.67-18.14L105.67-18.14Q105.94-17.92 105.94-17.58L105.94-17.58L105.94-12.72L111.66-12.72L111.66-12.72Q112.00-12.72 112.22-12.48L112.22-12.48L112.22-12.48Q112.44-12.24 112.44-11.90L112.44-11.90L112.44-11.90Q112.44-11.56 112.22-11.34L112.22-11.34L112.22-11.34Q112.00-11.12 111.66-11.12L111.66-11.12L105.94-11.12L105.94-3.84L105.94-3.84Q105.94-2.41 106.54-1.82L106.54-1.82L106.54-1.82Q107.13-1.22 108.75-1.22L108.75-1.22L108.75-1.22Q110.36-1.22 112.00-2.18L112.00-2.18ZM117.74-8.23L117.74-0.44L117.74-0.44Q117.74-0.10 117.47 0.12L117.47 0.12L117.47 0.12Q117.20 0.34 116.82 0.34L116.82 0.34L116.82 0.34Q116.45 0.34 116.18 0.12L116.18 0.12L116.18 0.12Q115.91-0.10 115.91-0.44L115.91-0.44L115.91-23.90L113.66-23.90L113.66-23.90Q113.32-23.90 113.10-24.12L113.10-24.12L113.10-24.12Q112.88-24.34 112.88-24.68L112.88-24.68L112.88-24.68Q112.88-25.02 113.10-25.26L113.10-25.26L113.10-25.26Q113.32-25.50 113.66-25.50L113.66-25.50L116.86-25.50L116.86-25.50Q117.20-25.50 117.47-25.26L117.47-25.26L117.47-25.26Q117.74-25.02 117.74-24.68L117.74-24.68L117.74-10.44L117.74-10.44Q119.85-13.12 122.74-13.12L122.74-13.12L122.74-13.12Q124.64-13.12 125.78-12.16L125.78-12.16L125.78-12.16Q126.92-11.19 126.92-9.45L126.92-9.45L126.92-2.21L126.92-2.21Q126.92-1.60 127.84-1.60L127.84-1.60L129.17-1.60L129.17-1.60Q129.51-1.60 129.73-1.36L129.73-1.36L129.73-1.36Q129.95-1.12 129.95-0.78L129.95-0.78L129.95-0.78Q129.95-0.44 129.73-0.22L129.73-0.22L129.73-0.22Q129.51 0 129.17 0L129.17 0L127.84 0L127.84 0Q125.09 0 125.09-2.21L125.09-2.21L125.09-9.45L125.09-9.45Q125.09-11.56 122.74-11.56L122.74-11.56L122.74-11.56Q119.61-11.56 117.74-8.23L117.74-8.23ZM152.18-1.60L152.18-1.60L153.78-1.60L153.78-1.60Q154.12-1.60 154.34-1.38L154.34-1.38L154.34-1.38Q154.56-1.16 154.56-0.82L154.56-0.82L154.56-0.82Q154.56-0.48 154.34-0.24L154.34-0.24L154.34-0.24Q154.12 0 153.78 0L153.78 0L151.95 0L151.95 0Q149.84 0 149.84-2.31L149.84-2.31L149.84-2.31Q147.80 0.34 144.70 0.34L144.70 0.34L144.70 0.34Q142.87 0.34 141.69-0.60L141.69-0.60L141.69-0.60Q140.52-1.53 140.52-3.33L140.52-3.33L140.52-10.47L140.52-10.47Q140.52-11.12 139.60-11.12L139.60-11.12L138.28-11.12L138.28-11.12Q137.94-11.12 137.72-11.36L137.72-11.36L137.72-11.36Q137.50-11.59 137.50-11.93L137.50-11.93L137.50-11.93Q137.50-12.27 137.72-12.50L137.72-12.50L137.72-12.50Q137.94-12.72 138.28-12.72L138.28-12.72L139.60-12.72L139.60-12.72Q142.36-12.72 142.36-10.51L142.36-10.51L142.36-3.33L142.36-3.33Q142.36-2.31 142.99-1.77L142.99-1.77L142.99-1.77Q143.62-1.22 144.74-1.22L144.74-1.22L144.74-1.22Q147.87-1.22 149.70-4.49L149.70-4.49L149.70-12.27L149.70-12.27Q149.70-12.61 149.97-12.84L149.97-12.84L149.97-12.84Q150.25-13.06 150.62-13.06L150.62-13.06L150.62-13.06Q150.99-13.06 151.27-12.84L151.27-12.84L151.27-12.84Q151.54-12.61 151.54-12.27L151.54-12.27L151.54-2.24L151.54-2.24Q151.54-1.60 152.18-1.60ZM156.33-1.33L156.33-1.33L156.33-4.08L156.33-4.08Q156.33-4.42 156.60-4.64L156.60-4.64L156.60-4.64Q156.88-4.86 157.25-4.86L157.25-4.86L157.25-4.86Q157.62-4.86 157.90-4.64L157.90-4.64L157.90-4.64Q158.17-4.42 158.17-4.08L158.17-4.08L158.17-1.77L158.17-1.77Q159.80-1.22 161.57-1.22L161.57-1.22L161.57-1.22Q165.44-1.22 165.44-3.40L165.44-3.40L165.44-3.40Q165.44-5.03 161.81-5.81L161.81-5.81L161.81-5.81Q161.64-5.85 161.06-5.98L161.06-5.98L161.06-5.98Q160.48-6.12 160.11-6.21L160.11-6.21L160.11-6.21Q159.73-6.29 158.87-6.61L158.87-6.61L158.87-6.61Q158.00-6.94 157.62-7.28L157.62-7.28L157.62-7.28Q156.60-8.19 156.60-9.54L156.60-9.54L156.60-9.54Q156.60-10.88 157.50-11.71L157.50-11.71L157.50-11.71Q158.41-12.55 159.49-12.80L159.49-12.80L159.49-12.80Q160.58-13.06 161.87-13.06L161.87-13.06L161.87-13.06Q164.25-13.06 166.26-12.14L166.26-12.14L166.26-12.14Q166.87-11.87 166.87-11.39L166.87-11.39L166.87-8.77L166.87-8.77Q166.87-8.43 166.60-8.21L166.60-8.21L166.60-8.21Q166.33-7.99 165.95-7.99L165.95-7.99L165.95-7.99Q165.58-7.99 165.31-8.21L165.31-8.21L165.31-8.21Q165.04-8.43 165.04-8.77L165.04-8.77L165.04-10.95L165.04-10.95Q163.68-11.49 161.87-11.49L161.87-11.49L161.87-11.49Q158.41-11.49 158.41-9.52L158.41-9.52L158.41-9.52Q158.41-8.81 158.87-8.53L158.87-8.53L158.87-8.53Q159.32-8.26 159.54-8.13L159.54-8.13L159.54-8.13Q159.77-7.99 160.34-7.85L160.34-7.85L160.34-7.85Q161.16-7.65 162.01-7.48L162.01-7.48L162.01-7.48Q162.86-7.31 163.40-7.17L163.40-7.17L163.40-7.17Q163.95-7.04 164.78-6.72L164.78-6.72L164.78-6.72Q165.61-6.39 166.09-5.98L166.09-5.98L166.09-5.98Q167.28-5.03 167.28-3.50L167.28-3.50L167.28-3.50Q167.28-1.97 166.28-1.07L166.28-1.07L166.28-1.07Q165.27-0.17 164.10 0.09L164.10 0.09L164.10 0.09Q162.93 0.34 161.57 0.34L161.57 0.34L161.57 0.34Q158.88 0.34 156.94-0.54L156.94-0.54L156.94-0.54Q156.33-0.82 156.33-1.33Z" fill="url(#editing-gradient-gradient)"></path></g></g><style>text {
  font-size: 64px;
  font-family: Arial Black;
  dominant-baseline: central;
  text-anchor: middle;
}</style></svg>